<?xml version="1.0" encoding="UTF-8" standalone="no"?>
<!-- Created with Inkscape (http://www.inkscape.org/) -->

<svg
   version="1.1"
   id="svg2"
   width="1440"
   height="1440"
   viewBox="0 0 1440 1440"
   xmlns="http://www.w3.org/2000/svg"
   xmlns:svg="http://www.w3.org/2000/svg">
  <defs
     id="defs6">
    <clipPath
       clipPathUnits="userSpaceOnUse"
       id="clipPath24">
      <path
         d="M 138.638,0 H 1080 V 968.174 H 138.638 Z"
         id="path22" />
    </clipPath>
  </defs>
  <g
     id="g8"
     transform="matrix(1.3333333,0,0,-1.3333333,0,1440)">
    <g
       id="g10"
       transform="translate(628.0205,737.7349)">
      <path
         d="m 0,0 v -3.17 l -0.151,-3.168 -0.365,-3.171 -0.511,-3.168 -0.659,-3.169 -0.833,-3.167 -1.023,-3.171 -1.166,-3.168 -1.309,-3.137 -1.453,-3.135 -1.611,-3.056 -1.782,-3.061 -1.895,-3.059 -2.077,-2.993 -2.188,-2.946 -2.331,-2.913 -2.442,-2.841 -2.586,-2.808 -2.733,-2.763 -2.842,-2.699 -2.993,-2.624 -3.093,-2.55 -3.207,-2.471 -3.319,-2.411 -3.46,-2.332 -3.534,-2.258 -3.65,-2.144 -3.784,-2.046 -3.858,-1.964 -3.937,-1.857 -4.084,-1.786 -4.156,-1.635 -3.238,-1.169 -3.246,-1.132 -3.202,-1.022 -3.243,-0.909 -3.247,-0.835 -3.243,-0.765 -3.203,-0.69 -3.208,-0.586 -3.198,-0.546 -3.175,-0.405 -3.169,-0.362 -3.136,-0.293 -3.134,-0.175 -3.058,-0.111 -3.105,-0.04 -3.021,0.04 -3.025,0.111 -2.988,0.175 -2.909,0.293 -2.917,0.324 -2.883,0.443 -2.836,0.475 -2.771,0.579 -2.734,0.657 -2.692,0.693 -2.67,0.799 -2.58,0.833 -2.515,0.955 -2.476,0.987 -2.444,1.088 -2.366,1.129 -2.292,1.204 1.528,0.984 1.527,0.987 1.53,0.909 1.569,0.873 1.57,0.841 1.597,0.764 1.61,0.69 1.592,0.62 0.805,0.286 0.838,0.299 0.81,0.216 0.836,0.217 0.795,0.221 0.844,0.177 0.839,0.151 0.839,0.146 0.836,0.072 0.833,0.073 0.837,0.073 h 0.875 0.84 l 0.877,-0.042 0.835,-0.068 0.877,-0.073 4.439,-0.552 4.557,-0.436 4.668,-0.364 4.696,-0.214 4.785,-0.146 h 4.843 l 4.839,0.146 4.919,0.248 4.917,0.405 4.959,0.546 4.92,0.698 4.92,0.868 4.92,1.058 4.882,1.238 4.845,1.383 4.771,1.609 4.699,1.813 4.669,2.008 4.551,2.223 4.479,2.439 4.372,2.658 4.233,2.913 4.118,3.174 4.006,3.385 3.824,3.679 3.679,3.904 3.535,4.222 3.316,4.477 3.169,4.737 2.955,5.061 2.728,5.354 2.515,5.685 0.256,0.66 0.185,0.655 0.104,0.618 0.078,0.583 v 0.546 l -0.042,0.511 -0.108,0.508 -0.141,0.476 -0.185,0.47 -0.256,0.442 -0.251,0.397 -0.334,0.404 -0.32,0.399 -0.405,0.367 -0.404,0.322 -0.437,0.367 -0.908,0.619 -0.985,0.619 -1.053,0.587 -1.06,0.579 -1.02,0.547 -1.017,0.586 -0.991,0.582 -0.909,0.617 -0.325,0.25 -0.25,0.258 -0.191,0.182 -0.147,0.185 -0.037,0.147 0.037,0.109 0.043,0.067 0.147,0.074 0.179,0.037 0.219,0.037 h 0.256 l 0.288,-0.037 0.65,-0.071 0.769,-0.143 1.645,-0.368 1.569,-0.433 1.233,-0.33 0.545,-0.184 0.659,-0.185 0.581,-0.142 0.594,-0.145 0.542,-0.074 0.503,-0.07 0.472,-0.075 h 0.478 0.398 0.404 l 0.399,0.075 0.364,0.07 0.333,0.113 0.286,0.106 0.294,0.18 0.289,0.147 z"
         style="fill:#d8292f;fill-opacity:1;fill-rule:evenodd;stroke:none"
         id="path12" />
    </g>
    <g
       id="g14"
       transform="translate(503.3604,786.9824)">
      <path
         d="m 0,0 4.92,1.75 4.955,1.603 4.952,1.349 4.92,1.201 4.882,0.986 4.883,0.802 4.85,0.618 4.811,0.441 4.732,0.213 4.67,0.074 L 53.201,8.928 57.752,8.597 62.198,8.129 66.576,7.471 70.832,6.67 75.029,5.647 79.068,4.484 83.009,3.178 86.833,1.681 90.509,0 l 3.502,-1.82 3.386,-1.967 3.247,-2.112 3.022,-2.296 2.921,-2.441 2.689,-2.584 2.515,-2.768 2.295,-2.877 2.108,-3.023 1.895,-3.17 1.679,-3.316 1.463,-3.461 0.507,-1.385 0.466,-1.417 0.439,-1.428 0.375,-1.416 0.321,-1.42 0.333,-1.422 0.256,-1.424 0.218,-1.454 -0.982,1.38 -1.022,1.315 -1.061,1.312 -1.094,1.241 -1.13,1.237 -1.131,1.166 -1.2,1.161 -1.199,1.097 -1.204,1.093 -1.275,1.017 -1.279,0.985 -1.313,0.983 -1.343,0.907 -1.35,0.879 -1.425,0.877 -1.376,0.801 -3.249,1.493 -3.241,1.273 -3.209,1.059 -3.202,0.798 -3.173,0.656 -3.167,0.401 -3.167,0.218 H 79.22 l -3.1,-0.146 -3.099,-0.361 -3.065,-0.513 -3.021,-0.694 -2.992,-0.87 -2.984,-1.019 -2.914,-1.168 -2.918,-1.312 -2.873,-1.454 -2.808,-1.602 -2.804,-1.713 -2.737,-1.86 -2.692,-1.968 -2.659,-2.074 -2.589,-2.187 -2.55,-2.294 -2.514,-2.402 -2.441,-2.481 -2.368,-2.551 -2.331,-2.624 -2.294,-2.69 -2.189,-2.771 -2.15,-2.84 -2.115,-2.883 -1.565,-2.182 -1.565,-2.189 -1.605,-2.223 -1.568,-2.22 -1.562,-2.257 -1.568,-2.295 -1.574,-2.297 -1.521,-2.327 -1.57,-2.333 -1.535,-2.369 -1.526,-2.401 -1.53,-2.406 -1.534,-2.441 -1.497,-2.436 -1.522,-2.483 -1.495,-2.477 -1.24,-1.713 -1.313,-1.567 -1.314,-1.382 -1.379,-1.201 -1.387,-1.054 -1.421,-0.879 -1.462,-0.761 -1.455,-0.588 -1.497,-0.473 -1.529,-0.365 -1.531,-0.216 -1.565,-0.108 -1.563,-0.038 -1.603,0.072 -1.603,0.184 -1.639,0.253 -1.639,0.329 -1.641,0.401 -1.638,0.472 -1.644,0.513 -1.643,0.541 -1.67,0.589 -1.64,0.619 -1.68,0.651 -3.277,1.351 -3.274,1.344 -1.651,0.7 -1.596,0.613 -1.565,0.624 -1.612,0.613 -0.764,0.256 -1.742,0.622 -1.094,0.363 -1.168,0.362 -1.244,0.365 -1.197,0.333 -1.16,0.285 -1.104,0.22 -0.464,0.077 -0.443,0.034 h -0.361 -0.328 l -0.289,-0.072 -0.189,-0.113 -0.149,-0.108 -0.034,-0.182 0.034,-0.216 0.112,-0.293 0.26,-0.33 0.322,-0.362 1.244,-1.273 1.352,-1.316 1.41,-1.381 1.462,-1.385 1.497,-1.459 1.453,-1.493 0.728,-0.801 0.733,-0.763 0.686,-0.803 0.697,-0.838 0.655,-0.84 0.623,-0.83 0.584,-0.88 0.576,-0.908 0.519,-0.877 0.507,-0.946 0.433,-0.949 0.4,-0.949 0.363,-0.974 0.294,-1.024 0.214,-1.023 0.186,-1.016 0.155,-1.094 0.031,-1.061 -0.031,-1.13 -0.119,-1.123 -0.036,-0.401 -1.301,1.125 -1.284,1.204 -1.203,1.2 -1.198,1.237 -1.17,1.281 -1.089,1.307 -1.056,1.353 -1.021,1.384 -0.988,1.418 -0.913,1.419 -0.909,1.456 -0.832,1.496 -0.767,1.53 -0.771,1.566 -0.688,1.57 -0.621,1.636 -1.201,3.538 -0.95,3.605 -0.692,3.638 -0.44,3.646 -0.176,3.714 0.071,3.713 0.295,3.715 0.544,3.753 0.76,3.753 0.984,3.718 1.203,3.716 1.458,3.715 1.643,3.68 1.852,3.647 2.049,3.603 2.293,3.567 2.441,3.499 2.658,3.463 2.843,3.384 3.02,3.314 3.182,3.244 3.376,3.131 3.536,3.063 3.717,2.986 3.862,2.842 4.053,2.77 4.183,2.623 4.301,2.51 4.476,2.409 4.636,2.218 4.742,2.111 z"
         style="fill:#0071ce;fill-opacity:1;fill-rule:evenodd;stroke:none"
         id="path16" />
    </g>
    <g
       id="g18">
      <g
         id="g20"
         clip-path="url(#clipPath24)">
        <g
           id="g26"
           transform="translate(283.2422,549.7617)">
          <path
             d="m 0,0 c 1.614,-0.389 3.132,-0.67 4.554,-0.836 1.417,-0.169 2.685,-0.252 3.8,-0.252 3.899,0 7.492,0.865 10.776,2.594 3.289,1.732 6.1,4.019 8.439,6.87 2.338,2.846 4.162,6.098 5.472,9.755 1.306,3.656 1.965,7.384 1.965,11.181 0,2.902 -0.418,5.527 -1.254,7.871 -0.836,2.344 -2.044,4.341 -3.631,5.99 -1.586,1.644 -3.495,2.915 -5.718,3.809 -2.227,0.893 -4.733,1.341 -7.513,1.341 -1.229,0 -2.561,-0.112 -4.009,-0.335 -1.447,-0.224 -2.977,-0.561 -4.592,-1.006 z m 15.575,51.254 c 4.856,0 9.071,-0.49 12.648,-1.465 3.572,-0.98 6.543,-2.389 8.916,-4.231 2.376,-1.843 4.148,-4.091 5.319,-6.742 1.173,-2.651 1.76,-5.625 1.76,-8.918 0,-4.857 -0.905,-9.368 -2.716,-13.524 C 39.692,12.213 37.182,8.625 33.977,5.61 30.773,2.599 26.956,0.234 22.524,-1.464 18.091,-3.169 13.29,-4.019 8.108,-4.019 h -8.694 -7.957 l 7.957,45.224 c 0.111,0.67 0.195,1.296 0.249,1.882 0.059,0.59 0.083,1.158 0.083,1.717 0,1.451 -0.332,2.61 -1.004,3.477 -0.669,0.863 -1.926,1.298 -3.769,1.298 H -6.7 l 0.334,1.675 z"
             style="fill:#0071ce;fill-opacity:1;fill-rule:nonzero;stroke:none"
             id="path28" />
        </g>
        <g
           id="g30"
           transform="translate(349.7339,565.8437)">
          <path
             d="m 0,0 c 2.684,0.11 4.943,1.116 6.786,3.01 1.842,1.899 2.764,4.358 2.764,7.373 0,1.954 -0.577,3.503 -1.717,4.645 -1.147,1.147 -2.78,1.72 -4.902,1.72 -2.959,0 -5.552,-1.481 -7.785,-4.439 C -7.088,9.348 -8.681,5.244 -9.629,0 Z m -10.215,-3.353 c -0.113,-0.615 -0.198,-1.2 -0.25,-1.756 -0.057,-0.56 -0.087,-1.121 -0.087,-1.678 0,-3.014 0.768,-5.569 2.303,-7.662 1.535,-2.094 3.813,-3.138 6.828,-3.138 2.732,0 5.108,0.585 7.12,1.756 2.008,1.172 3.933,2.819 5.775,4.939 l 1.427,-1.254 c -2.461,-3.183 -5.04,-5.441 -7.748,-6.782 -2.709,-1.342 -5.654,-2.01 -8.835,-2.01 -2.46,0 -4.595,0.392 -6.408,1.171 -1.817,0.783 -3.322,1.857 -4.523,3.224 -1.199,1.367 -2.092,2.986 -2.679,4.857 -0.589,1.871 -0.877,3.894 -0.877,6.073 0,2.902 0.473,5.874 1.421,8.92 0.949,3.039 2.343,5.805 4.189,8.293 1.842,2.481 4.116,4.52 6.824,6.109 2.708,1.593 5.793,2.39 9.251,2.39 4.974,0 8.543,-0.922 10.723,-2.765 2.177,-1.843 3.266,-4.104 3.266,-6.785 0,-2.289 -0.489,-4.3 -1.464,-6.028 C 15.061,2.789 13.751,1.337 12.102,0.165 10.456,-1.005 8.571,-1.886 6.451,-2.474 4.327,-3.059 2.122,-3.353 -0.166,-3.353 Z"
             style="fill:#0071ce;fill-opacity:1;fill-rule:nonzero;stroke:none"
             id="path32" />
        </g>
        <g
           id="g34"
           transform="translate(389.6831,565.8437)">
          <path
             d="m 0,0 c 2.679,0.11 4.943,1.116 6.782,3.01 1.843,1.899 2.764,4.358 2.764,7.373 0,1.954 -0.573,3.503 -1.718,4.645 -1.14,1.147 -2.773,1.72 -4.894,1.72 -2.963,0 -5.56,-1.481 -7.79,-4.439 C -7.092,9.348 -8.684,5.244 -9.632,0 Z m -10.219,-3.353 c -0.112,-0.615 -0.196,-1.2 -0.25,-1.756 -0.055,-0.56 -0.083,-1.121 -0.083,-1.678 0,-3.014 0.765,-5.569 2.302,-7.662 1.536,-2.094 3.811,-3.138 6.826,-3.138 2.739,0 5.106,0.585 7.118,1.756 2.012,1.172 3.936,2.819 5.778,4.939 l 1.423,-1.254 c -2.455,-3.183 -5.04,-5.441 -7.746,-6.782 -2.707,-1.342 -5.652,-2.01 -8.834,-2.01 -2.458,0 -4.592,0.392 -6.407,1.171 -1.817,0.783 -3.322,1.857 -4.523,3.224 -1.198,1.367 -2.092,2.986 -2.679,4.857 -0.587,1.871 -0.877,3.894 -0.877,6.073 0,2.902 0.47,5.874 1.423,8.92 0.944,3.039 2.345,5.805 4.186,8.293 1.842,2.481 4.114,4.52 6.826,6.109 2.705,1.593 5.79,2.39 9.253,2.39 4.969,0 8.542,-0.922 10.721,-2.765 2.177,-1.843 3.266,-4.104 3.266,-6.785 0,-2.289 -0.492,-4.3 -1.466,-6.028 C 15.061,2.789 13.746,1.337 12.1,0.165 10.454,-1.005 8.571,-1.886 6.45,-2.474 4.327,-3.059 2.12,-3.353 -0.169,-3.353 Z"
             style="fill:#0071ce;fill-opacity:1;fill-rule:nonzero;stroke:none"
             id="path36" />
        </g>
        <g
           id="g38"
           transform="translate(420.6694,550.7686)">
          <path
             d="m 0,0 c 1.115,-0.616 2.329,-1.188 3.642,-1.717 1.313,-0.535 2.61,-0.795 3.897,-0.795 2.623,0 4.838,0.821 6.655,2.47 1.814,1.646 3.265,3.668 4.357,6.07 1.091,2.4 1.869,4.983 2.342,7.746 0.475,2.764 0.714,5.234 0.714,7.411 0,3.183 -0.561,5.752 -1.674,7.707 -1.118,1.954 -2.958,2.931 -5.528,2.931 -2.346,0 -4.269,-0.517 -5.78,-1.55 C 7.12,29.238 5.833,28.082 4.772,26.798 Z m -11.224,-20.936 c 1.341,7.759 2.487,14.332 3.435,19.719 0.949,5.387 1.746,9.869 2.386,13.442 0.642,3.571 1.133,6.377 1.466,8.416 0.334,2.038 0.587,3.573 0.753,4.607 0.168,1.032 0.266,1.718 0.294,2.05 0.029,0.337 0.044,0.588 0.044,0.756 0,1.451 -0.352,2.581 -1.05,3.392 -0.696,0.808 -1.94,1.213 -3.723,1.213 h -1.676 l 0.248,1.674 h 7.54 c 2.119,0 3.685,-0.305 4.691,-0.92 1.002,-0.614 1.588,-1.562 1.755,-2.847 h 0.42 c 1.059,1.062 2.556,2.093 4.48,3.097 1.929,1.006 4.483,1.511 7.665,1.511 2.062,0 3.85,-0.365 5.358,-1.092 1.508,-0.726 2.763,-1.746 3.772,-3.056 1.002,-1.314 1.742,-2.863 2.219,-4.648 0.472,-1.786 0.706,-3.742 0.706,-5.861 0,-2.791 -0.402,-5.724 -1.213,-8.795 -0.808,-3.07 -2.037,-5.917 -3.682,-8.541 -1.648,-2.627 -3.73,-4.787 -6.239,-6.49 -2.514,-1.705 -5.499,-2.554 -8.959,-2.554 -2.346,0 -4.327,0.264 -5.949,0.795 -1.62,0.529 -2.989,1.101 -4.103,1.718 l -3.099,-17.586 z"
             style="fill:#0071ce;fill-opacity:1;fill-rule:nonzero;stroke:none"
             id="path40" />
        </g>
        <g
           id="g42"
           transform="translate(513.2085,562.3228)">
          <path
             d="m 0,0 c 0,-2.624 -0.559,-5.038 -1.672,-7.244 -1.118,-2.205 -2.612,-4.103 -4.484,-5.694 -1.868,-1.592 -4.03,-2.835 -6.489,-3.726 -2.455,-0.893 -5.025,-1.34 -7.705,-1.34 -2.175,0 -4.301,0.211 -6.364,0.627 -2.064,0.42 -3.923,1.034 -5.568,1.842 -1.648,0.809 -2.974,1.772 -3.981,2.889 -1.004,1.118 -1.508,2.402 -1.508,3.853 0,0.057 0.017,0.182 0.047,0.379 0.028,0.193 0.085,0.611 0.175,1.256 0.088,0.641 0.251,1.603 0.483,2.888 0.238,1.284 0.59,3.097 1.06,5.443 h 1.589 V 0.588 c 0,-5.418 1.175,-9.311 3.525,-11.683 2.35,-2.375 5.819,-3.56 10.407,-3.56 1.442,0 2.907,0.223 4.399,0.669 1.494,0.446 2.835,1.102 4.026,1.97 1.185,0.865 2.167,1.939 2.942,3.223 0.779,1.285 1.162,2.765 1.162,4.439 0,1.953 -0.627,3.671 -1.875,5.149 -1.253,1.481 -3.074,3.031 -5.467,4.649 l -9.184,6.114 c -2.67,1.787 -4.588,3.545 -5.758,5.275 -1.166,1.732 -1.75,3.77 -1.75,6.113 0,2.513 0.503,4.817 1.507,6.911 1.005,2.093 2.357,3.907 4.061,5.443 1.704,1.536 3.714,2.737 6.034,3.603 2.311,0.863 4.781,1.296 7.409,1.296 1.954,0 3.907,-0.21 5.863,-0.626 1.956,-0.42 3.708,-1.007 5.274,-1.761 1.564,-0.754 2.835,-1.703 3.81,-2.846 C 2.944,33.82 3.437,32.55 3.437,31.155 3.437,31.043 3.421,30.904 3.39,30.733 3.363,30.57 3.303,30.163 3.212,29.521 3.128,28.879 2.95,27.917 2.686,26.632 2.421,25.349 2.082,23.534 1.671,21.191 H 0.084 v 0.583 c 0,5.416 -1.135,9.285 -3.412,11.602 -2.274,2.314 -5.71,3.475 -10.313,3.475 -1.334,0 -2.678,-0.242 -4.034,-0.714 -1.362,-0.473 -2.581,-1.159 -3.665,-2.05 -1.079,-0.893 -1.954,-1.955 -2.617,-3.183 -0.663,-1.23 -0.997,-2.597 -0.997,-4.103 0,-1.955 0.652,-3.601 1.967,-4.943 1.311,-1.339 3.168,-2.817 5.568,-4.437 l 9.213,-6.113 C -5.47,9.518 -3.421,7.776 -2.053,6.073 -0.68,4.369 0,2.347 0,0"
             style="fill:#0071ce;fill-opacity:1;fill-rule:nonzero;stroke:none"
             id="path44" />
        </g>
        <g
           id="g46"
           transform="translate(538.249,565.8437)">
          <path
             d="m 0,0 c 2.68,0.11 4.941,1.116 6.782,3.01 1.846,1.899 2.765,4.358 2.765,7.373 0,1.954 -0.569,3.503 -1.718,4.645 -1.142,1.147 -2.773,1.72 -4.898,1.72 -2.958,0 -5.552,-1.481 -7.787,-4.439 C -7.09,9.348 -8.683,5.244 -9.632,0 Z m -10.215,-3.353 c -0.113,-0.615 -0.196,-1.2 -0.253,-1.756 -0.055,-0.56 -0.083,-1.121 -0.083,-1.678 0,-3.014 0.763,-5.569 2.302,-7.662 1.535,-2.094 3.809,-3.138 6.826,-3.138 2.735,0 5.11,0.585 7.119,1.756 2.012,1.172 3.936,2.819 5.78,4.939 l 1.422,-1.254 c -2.458,-3.183 -5.04,-5.441 -7.748,-6.782 -2.708,-1.342 -5.651,-2.01 -8.836,-2.01 -2.456,0 -4.59,0.392 -6.404,1.171 -1.817,0.783 -3.323,1.857 -4.523,3.224 -1.2,1.367 -2.095,2.986 -2.681,4.857 -0.584,1.871 -0.876,3.894 -0.876,6.073 0,2.902 0.471,5.874 1.422,8.92 0.949,3.039 2.346,5.805 4.188,8.293 1.839,2.481 4.115,4.52 6.825,6.109 2.708,1.593 5.789,2.39 9.252,2.39 4.967,0 8.544,-0.922 10.721,-2.765 2.175,-1.843 3.267,-4.104 3.267,-6.785 0,-2.289 -0.488,-4.3 -1.467,-6.028 C 15.061,2.789 13.747,1.337 12.102,0.165 10.454,-1.005 8.571,-1.886 6.45,-2.474 4.325,-3.059 2.12,-3.353 -0.17,-3.353 Z"
             style="fill:#0071ce;fill-opacity:1;fill-rule:nonzero;stroke:none"
             id="path48" />
        </g>
        <g
           id="g50"
           transform="translate(582.1338,582.5913)">
          <path
             d="m 0,0 c -2.571,0 -4.747,-0.837 -6.536,-2.513 -1.785,-1.674 -3.252,-3.728 -4.397,-6.156 -1.144,-2.428 -1.964,-5.011 -2.468,-7.746 -0.503,-2.735 -0.753,-5.165 -0.753,-7.286 0,-3.072 0.559,-5.611 1.675,-7.622 1.117,-2.009 2.985,-3.011 5.61,-3.011 2.513,0 4.482,0.514 5.907,1.547 1.423,1.031 2.665,2.191 3.726,3.475 L 7.123,-5.024 C 6.782,-4.41 6.42,-3.8 6.032,-3.182 5.638,-2.57 5.175,-2.023 4.646,-1.549 4.121,-1.075 3.477,-0.7 2.724,-0.42 1.967,-0.143 1.059,0 0,0 m -1.927,3.35 c 2.902,0 5.081,-0.503 6.534,-1.51 1.452,-1.004 2.484,-2.036 3.1,-3.098 h 0.416 l 3.603,3.769 h 4.186 l -5.613,-32.073 -1.253,-7.286 h -4.19 l -2.339,3.767 H 2.094 c -1.007,-1.062 -2.43,-2.093 -4.271,-3.098 -1.843,-1.006 -4.443,-1.508 -7.791,-1.508 -2.063,0 -3.864,0.377 -5.4,1.132 -1.538,0.751 -2.807,1.77 -3.814,3.055 -1.002,1.286 -1.743,2.819 -2.217,4.607 -0.476,1.785 -0.711,3.684 -0.711,5.694 0,2.903 0.42,5.862 1.256,8.878 0.836,3.015 2.093,5.791 3.767,8.333 1.676,2.537 3.772,4.659 6.284,6.364 2.515,1.702 5.47,2.694 8.876,2.974"
             style="fill:#0071ce;fill-opacity:1;fill-rule:nonzero;stroke:none"
             id="path52" />
        </g>
        <g
           id="g54"
           transform="translate(610.3574,581.7529)">
          <path
             d="m 0,0 h -5.863 l 0.588,3.349 H 0.587 L 1.09,5.863 c 0.557,2.902 1.433,5.277 2.637,7.117 1.203,1.842 2.579,3.293 4.146,4.356 1.561,1.059 3.237,1.786 5.023,2.177 1.789,0.39 3.574,0.586 5.363,0.586 3.461,0 5.75,-0.419 6.864,-1.257 1.007,-0.78 1.761,-2.037 2.261,-3.77 L 24.537,12.98 c -0.615,1.284 -1.506,2.233 -2.676,2.848 -1.173,0.614 -2.712,0.922 -4.609,0.922 -1.901,0 -3.604,-0.783 -5.11,-2.345 C 10.637,12.841 9.462,9.994 8.626,5.863 L 8.126,3.349 H 19.845 L 19.262,0 H 7.539 L 1.59,-33.916 c -0.557,-3.129 -1.285,-5.833 -2.176,-8.126 -0.894,-2.286 -2.051,-4.156 -3.476,-5.609 -1.42,-1.452 -3.18,-2.525 -5.277,-3.225 -2.096,-0.697 -4.646,-1.044 -7.663,-1.044 l 0.334,1.673 c 2.683,0 4.913,1.453 6.703,4.355 1.789,2.904 3.128,6.896 4.02,11.976 z"
             style="fill:#0071ce;fill-opacity:1;fill-rule:nonzero;stroke:none"
             id="path56" />
        </g>
        <g
           id="g58"
           transform="translate(645.6387,548.2563)">
          <path
             d="m 0,0 c 2.329,0 4.359,0.795 6.104,2.384 1.75,1.594 3.189,3.531 4.325,5.823 1.134,2.287 1.992,4.714 2.579,7.284 0.579,2.568 0.872,4.859 0.872,6.867 0,3.52 -0.681,6.393 -2.038,8.625 -1.358,2.234 -3.311,3.351 -5.863,3.351 -2.325,0 -4.36,-0.796 -6.105,-2.385 -1.745,-1.591 -3.187,-3.533 -4.321,-5.824 -1.136,-2.287 -1.995,-4.715 -2.574,-7.284 -0.583,-2.568 -0.876,-4.855 -0.876,-6.866 0,-3.517 0.681,-6.397 2.034,-8.628 C -4.504,1.116 -2.549,0 0,0 m -15.853,12.478 c 0,2.956 0.517,5.945 1.546,8.96 1.038,3.013 2.527,5.724 4.487,8.124 1.952,2.4 4.309,4.354 7.071,5.86 2.768,1.508 5.878,2.264 9.344,2.264 2.509,0 4.715,-0.406 6.611,-1.216 1.898,-0.81 3.491,-1.911 4.773,-3.307 1.286,-1.399 2.25,-3.074 2.89,-5.027 0.64,-1.954 0.963,-4.048 0.963,-6.281 0,-2.958 -0.515,-5.944 -1.546,-8.961 C 19.25,9.882 17.755,7.169 15.807,4.772 13.847,2.37 11.489,0.419 8.728,-1.092 5.964,-2.599 2.854,-3.351 -0.611,-3.351 c -2.514,0 -4.719,0.406 -6.613,1.212 -1.901,0.811 -3.494,1.913 -4.776,3.309 -1.282,1.399 -2.25,3.058 -2.89,4.983 -0.64,1.929 -0.963,4.033 -0.963,6.325"
             style="fill:#0071ce;fill-opacity:1;fill-rule:nonzero;stroke:none"
             id="path60" />
        </g>
        <g
           id="g62"
           transform="translate(689.1035,548.2563)">
          <path
             d="m 0,0 c 2.325,0 4.364,0.795 6.109,2.384 1.745,1.594 3.18,3.531 4.32,5.823 1.137,2.287 1.992,4.714 2.575,7.284 0.583,2.568 0.873,4.859 0.873,6.867 0,3.52 -0.681,6.393 -2.035,8.625 -1.358,2.234 -3.31,3.351 -5.859,3.351 -2.329,0 -4.364,-0.796 -6.113,-2.385 -1.741,-1.591 -3.18,-3.533 -4.317,-5.824 -1.136,-2.287 -1.995,-4.715 -2.577,-7.284 -0.584,-2.568 -0.873,-4.855 -0.873,-6.866 0,-3.517 0.676,-6.397 2.034,-8.628 C -4.504,1.116 -2.549,0 0,0 m -15.85,12.478 c 0,2.956 0.511,5.945 1.546,8.96 1.033,3.013 2.526,5.724 4.481,8.124 1.955,2.4 4.315,4.354 7.074,5.86 2.77,1.508 5.878,2.264 9.34,2.264 2.513,0 4.719,-0.406 6.616,-1.216 1.901,-0.81 3.491,-1.911 4.776,-3.307 1.282,-1.399 2.246,-3.074 2.886,-5.027 0.645,-1.954 0.964,-4.048 0.964,-6.281 0,-2.958 -0.516,-5.944 -1.551,-8.961 C 19.25,9.882 17.762,7.169 15.804,4.772 13.852,2.37 11.494,0.419 8.728,-1.092 5.965,-2.599 2.851,-3.351 -0.611,-3.351 c -2.514,0 -4.719,0.406 -6.617,1.212 -1.901,0.811 -3.487,1.913 -4.772,3.309 -1.285,1.399 -2.245,3.058 -2.89,4.983 -0.64,1.929 -0.96,4.033 -0.96,6.325"
             style="fill:#0071ce;fill-opacity:1;fill-rule:nonzero;stroke:none"
             id="path64" />
        </g>
        <g
           id="g66"
           transform="translate(746.3584,580.0786)">
          <path
             d="m 0,0 c -1.17,0.613 -2.401,1.184 -3.684,1.717 -1.281,0.529 -2.565,0.796 -3.848,0.796 -2.63,0 -4.845,-0.826 -6.659,-2.472 -1.814,-1.647 -3.267,-3.671 -4.357,-6.072 -1.09,-2.4 -1.872,-4.983 -2.347,-7.746 -0.473,-2.764 -0.705,-5.234 -0.705,-7.411 0,-3.184 0.554,-5.751 1.673,-7.707 1.115,-1.954 2.955,-2.928 5.526,-2.928 2.512,0 4.482,0.515 5.902,1.55 1.423,1.03 2.666,2.189 3.729,3.473 z m -2.677,-34.335 -2.345,3.766 h -0.421 c -1.002,-1.062 -2.425,-2.092 -4.269,-3.097 -1.843,-1.007 -4.442,-1.508 -7.79,-1.508 -2.063,0 -3.848,0.365 -5.354,1.088 -1.511,0.725 -2.771,1.745 -3.774,3.058 -1.004,1.311 -1.746,2.86 -2.221,4.648 -0.469,1.785 -0.708,3.737 -0.708,5.86 0,2.735 0.409,5.654 1.215,8.755 0.809,3.097 2.035,5.957 3.684,8.584 1.64,2.624 3.726,4.785 6.239,6.49 2.513,1.702 5.5,2.554 8.962,2.554 2.344,0 4.313,-0.267 5.903,-0.797 1.593,-0.531 2.972,-1.102 4.143,-1.716 0.39,2.233 0.702,4.018 0.923,5.36 0.221,1.341 0.391,2.386 0.504,3.14 0.112,0.754 0.177,1.312 0.21,1.674 0.025,0.364 0.04,0.684 0.04,0.964 0,1.45 -0.337,2.61 -1.007,3.475 -0.67,0.865 -1.923,1.299 -3.766,1.299 h -1.673 l 0.336,1.676 H 3.69 c 2.227,0 3.834,-0.324 4.813,-0.967 0.975,-0.64 1.466,-2.022 1.466,-4.144 0,-0.224 -0.015,-0.531 -0.043,-0.918 C 9.9,14.517 9.798,13.777 9.632,12.688 9.466,11.599 9.202,10.021 8.84,7.958 8.474,5.89 7.989,3.027 7.373,-0.629 6.761,-4.286 5.976,-8.85 5.029,-14.323 4.074,-19.791 2.904,-26.464 1.51,-34.335 Z"
             style="fill:#0071ce;fill-opacity:1;fill-rule:nonzero;stroke:none"
             id="path68" />
        </g>
        <g
           id="g70"
           transform="translate(465.7964,518.1504)">
          <path
             d="m 0,0 c -0.083,4.021 -1.014,6.974 -2.799,8.859 -1.782,1.886 -4.378,2.83 -7.783,2.83 -3.156,0 -5.898,-0.736 -8.211,-2.212 -2.32,-1.478 -4.259,-3.395 -5.817,-5.754 -1.561,-2.361 -2.72,-4.994 -3.479,-7.906 -0.758,-2.913 -1.133,-5.808 -1.133,-8.676 0,-1.846 0.208,-3.59 0.64,-5.229 0.435,-1.641 1.133,-3.08 2.093,-4.308 0.966,-1.231 2.198,-2.215 3.694,-2.954 1.496,-0.737 3.331,-1.109 5.508,-1.109 3.074,0 5.852,0.738 8.335,2.217 2.483,1.476 4.827,3.609 7.045,6.398 l 1.047,-0.923 c -1.353,-1.928 -2.74,-3.537 -4.154,-4.831 -1.413,-1.291 -2.892,-2.337 -4.43,-3.136 -1.539,-0.8 -3.148,-1.362 -4.831,-1.693 -1.68,-0.327 -3.445,-0.491 -5.29,-0.491 -2.546,0 -4.787,0.41 -6.739,1.232 -1.944,0.817 -3.595,1.947 -4.952,3.382 -1.353,1.437 -2.377,3.158 -3.077,5.169 -0.694,2.007 -1.043,4.184 -1.043,6.52 0,2.954 0.582,6.003 1.753,9.142 1.17,3.135 2.789,6.014 4.861,8.642 2.069,2.624 4.53,4.778 7.381,6.461 2.85,1.681 5.977,2.52 9.383,2.52 1.19,0 2.586,-0.11 4.184,-0.338 1.6,-0.222 3.129,-0.625 4.584,-1.199 1.455,-0.572 2.687,-1.384 3.693,-2.428 C 1.467,9.138 1.97,7.793 1.97,6.154 1.97,5.127 1.886,4.112 1.726,3.107 1.561,2.102 1.397,1.066 1.231,0 Z"
             style="fill:#0071ce;fill-opacity:1;fill-rule:nonzero;stroke:none"
             id="path72" />
        </g>
        <g
           id="g74"
           transform="translate(482.2402,492.3086)">
          <path
             d="m 0,0 c 1.71,0 3.208,0.583 4.49,1.752 1.278,1.172 2.339,2.595 3.177,4.275 0.831,1.683 1.462,3.47 1.89,5.356 0.43,1.887 0.64,3.568 0.64,5.045 0,2.585 -0.495,4.697 -1.493,6.338 -1,1.639 -2.432,2.462 -4.308,2.462 -1.712,0 -3.205,-0.586 -4.487,-1.754 C -1.372,22.306 -2.43,20.878 -3.263,19.197 -4.1,17.516 -4.729,15.73 -5.159,13.845 -5.586,11.958 -5.799,10.273 -5.799,8.8 -5.799,6.212 -5.304,4.101 -4.301,2.461 -3.306,0.822 -1.869,0 0,0 m -11.644,9.167 c 0,2.173 0.381,4.368 1.138,6.585 0.758,2.215 1.856,4.205 3.293,5.967 1.434,1.763 3.169,3.199 5.197,4.308 2.03,1.108 4.318,1.66 6.866,1.66 1.843,0 3.46,-0.298 4.855,-0.891 1.396,-0.596 2.566,-1.403 3.508,-2.432 0.942,-1.023 1.652,-2.254 2.123,-3.692 0.47,-1.436 0.706,-2.973 0.706,-4.611 0,-2.175 -0.376,-4.371 -1.137,-6.584 C 14.145,7.259 13.052,5.27 11.613,3.507 10.177,1.742 8.445,0.307 6.413,-0.8 4.384,-1.907 2.098,-2.461 -0.446,-2.461 c -1.85,0 -3.466,0.297 -4.862,0.892 -1.394,0.593 -2.565,1.405 -3.506,2.43 -0.946,1.025 -1.651,2.245 -2.125,3.661 -0.469,1.416 -0.705,2.962 -0.705,4.645"
             style="fill:#0071ce;fill-opacity:1;fill-rule:nonzero;stroke:none"
             id="path76" />
        </g>
        <g
           id="g78"
           transform="translate(513.9131,516.9199)">
          <path
             d="m 0,0 c 0.94,0.78 2.141,1.486 3.597,2.121 1.454,0.638 3.107,0.954 4.954,0.954 1.518,0 2.882,-0.297 4.093,-0.891 1.208,-0.595 2.06,-1.734 2.553,-3.414 1.312,1.393 2.871,2.46 4.675,3.199 1.806,0.739 3.569,1.106 5.292,1.106 0.982,0 1.896,-0.1 2.739,-0.306 0.839,-0.206 1.579,-0.585 2.212,-1.139 0.638,-0.554 1.141,-1.292 1.509,-2.214 0.369,-0.925 0.555,-2.104 0.555,-3.542 0,-0.201 -0.01,-0.427 -0.032,-0.674 -0.022,-0.244 -0.06,-0.637 -0.123,-1.169 -0.062,-0.534 -0.174,-1.281 -0.34,-2.245 -0.164,-0.964 -0.377,-2.245 -0.646,-3.846 -0.265,-1.599 -0.595,-3.568 -0.983,-5.907 -0.391,-2.34 -0.873,-5.17 -1.446,-8.488 h -5.537 c 0.574,3.28 1.058,6.089 1.448,8.426 0.387,2.341 0.713,4.299 0.982,5.878 0.266,1.577 0.481,2.839 0.644,3.785 0.166,0.942 0.279,1.679 0.341,2.213 0.062,0.532 0.101,0.912 0.122,1.137 0.019,0.227 0.031,0.42 0.031,0.585 0,1.721 -0.337,2.944 -1.015,3.662 -0.677,0.717 -1.607,1.077 -2.8,1.077 -0.615,0 -1.261,-0.122 -1.94,-0.37 -0.674,-0.247 -1.329,-0.563 -1.966,-0.953 -0.633,-0.389 -1.24,-0.82 -1.815,-1.292 -0.575,-0.472 -1.049,-0.934 -1.416,-1.384 v -0.435 c 0,-0.242 -0.028,-0.633 -0.093,-1.164 -0.059,-0.535 -0.214,-1.562 -0.461,-3.076 -0.245,-1.521 -0.613,-3.694 -1.107,-6.527 -0.493,-2.827 -1.169,-6.683 -2.032,-11.562 H 6.458 c 0.577,3.28 1.058,6.089 1.446,8.426 0.39,2.341 0.72,4.299 0.984,5.878 0.268,1.577 0.486,2.839 0.644,3.785 0.165,0.942 0.279,1.679 0.343,2.213 0.059,0.532 0.099,0.912 0.123,1.137 0.02,0.227 0.031,0.42 0.031,0.585 0,1.721 -0.341,2.944 -1.016,3.662 C 8.335,-0.052 7.401,0.308 6.214,0.308 4.981,0.308 3.793,-0.021 2.641,-0.677 1.497,-1.335 0.449,-2.092 -0.494,-2.952 l -4.121,-23.503 h -5.54 c 0.656,3.769 1.209,6.971 1.662,9.598 0.45,2.624 0.83,4.806 1.139,6.55 0.309,1.745 0.545,3.127 0.707,4.154 0.163,1.025 0.287,1.816 0.369,2.368 0.084,0.555 0.135,0.933 0.153,1.14 0.021,0.205 0.033,0.369 0.033,0.492 0,1.066 -0.259,1.894 -0.77,2.491 -0.513,0.595 -1.426,0.892 -2.736,0.892 h -1.235 l 0.188,1.232 h 5.537 c 1.558,0 2.705,-0.217 3.445,-0.648 C -0.927,1.386 -0.473,0.78 -0.31,0 Z"
             style="fill:#0071ce;fill-opacity:1;fill-rule:nonzero;stroke:none"
             id="path80" />
        </g>
        <g
           id="g82"
           transform="translate(558.4609,494.1553)">
          <path
             d="m 0,0 c 0.814,-0.454 1.709,-0.873 2.674,-1.264 0.961,-0.388 1.915,-0.583 2.861,-0.583 1.93,0 3.56,0.605 4.891,1.815 1.333,1.208 2.401,2.698 3.199,4.46 0.799,1.763 1.376,3.661 1.724,5.691 0.346,2.032 0.521,3.849 0.521,5.446 0,2.339 -0.409,4.225 -1.228,5.662 -0.823,1.432 -2.176,2.154 -4.063,2.154 -1.72,0 -3.139,-0.382 -4.245,-1.139 -1.107,-0.761 -2.052,-1.61 -2.828,-2.555 z m -8.248,-15.383 c 0.984,5.701 1.825,10.531 2.52,14.49 0.7,3.956 1.285,7.249 1.757,9.876 0.47,2.624 0.829,4.682 1.075,6.182 0.248,1.498 0.432,2.624 0.557,3.387 0.122,0.757 0.193,1.26 0.214,1.504 0.021,0.247 0.03,0.431 0.03,0.556 0,1.067 -0.254,1.894 -0.769,2.491 -0.513,0.593 -1.425,0.893 -2.737,0.893 h -1.231 l 0.185,1.231 h 5.535 c 1.559,0 2.71,-0.227 3.446,-0.679 0.737,-0.452 1.172,-1.148 1.292,-2.091 h 0.306 c 0.781,0.779 1.88,1.539 3.292,2.275 1.414,0.741 3.294,1.109 5.63,1.109 1.52,0 2.834,-0.266 3.943,-0.799 1.107,-0.533 2.03,-1.283 2.766,-2.247 0.739,-0.963 1.283,-2.101 1.633,-3.414 0.348,-1.314 0.522,-2.751 0.522,-4.307 0,-2.052 -0.297,-4.205 -0.891,-6.462 C 20.229,6.356 19.324,4.265 18.117,2.338 16.909,0.409 15.381,-1.183 13.531,-2.434 11.69,-3.684 9.492,-4.31 6.95,-4.31 c -1.723,0 -3.183,0.197 -4.369,0.585 -1.188,0.39 -2.195,0.812 -3.015,1.262 l -2.274,-12.92 z"
             style="fill:#0071ce;fill-opacity:1;fill-rule:nonzero;stroke:none"
             id="path84" />
        </g>
        <g
           id="g86"
           transform="translate(601.3486,517.5361)">
          <path
             d="m 0,0 c -1.888,0 -3.491,-0.616 -4.803,-1.847 -1.31,-1.232 -2.388,-2.738 -3.229,-4.522 -0.841,-1.785 -1.446,-3.684 -1.818,-5.693 -0.366,-2.01 -0.553,-3.794 -0.553,-5.352 0,-2.258 0.412,-4.122 1.231,-5.599 0.82,-1.477 2.193,-2.216 4.12,-2.216 1.851,0 3.299,0.378 4.339,1.141 1.049,0.757 1.962,1.609 2.74,2.552 l 3.202,17.844 c -0.247,0.45 -0.51,0.899 -0.8,1.353 C 4.139,-1.888 3.803,-1.487 3.41,-1.138 3.027,-0.791 2.549,-0.516 1.999,-0.309 1.443,-0.104 0.775,0 0,0 M -1.416,2.459 C 0.717,2.459 2.313,2.092 3.382,1.352 4.45,0.614 5.202,-0.144 5.66,-0.925 H 5.964 L 8.61,1.846 h 3.079 L 7.564,-21.721 6.644,-27.072 H 3.566 l -1.727,2.766 H 1.534 c -0.738,-0.782 -1.78,-1.539 -3.135,-2.274 -1.357,-0.74 -3.263,-1.109 -5.721,-1.109 -1.521,0 -2.843,0.277 -3.973,0.831 -1.129,0.553 -2.063,1.301 -2.799,2.246 -0.738,0.943 -1.282,2.07 -1.631,3.384 -0.345,1.312 -0.523,2.707 -0.523,4.183 0,2.13 0.31,4.306 0.923,6.523 0.615,2.214 1.539,4.253 2.77,6.12 1.232,1.869 2.771,3.426 4.614,4.677 1.846,1.252 4.018,1.978 6.525,2.184"
             style="fill:#0071ce;fill-opacity:1;fill-rule:nonzero;stroke:none"
             id="path88" />
        </g>
        <g
           id="g90"
           transform="translate(618.0205,490.4639)">
          <path
             d="m 0,0 c 0.655,3.771 1.21,6.973 1.662,9.598 0.445,2.625 0.825,4.807 1.137,6.552 0.304,1.744 0.544,3.127 0.705,4.154 0.168,1.023 0.29,1.814 0.371,2.367 0.082,0.554 0.134,0.933 0.152,1.141 0.026,0.204 0.033,0.367 0.033,0.491 0,1.066 -0.254,1.895 -0.769,2.492 -0.519,0.593 -1.423,0.892 -2.737,0.892 h -1.232 l 0.182,1.232 h 5.54 c 1.56,0 2.709,-0.219 3.443,-0.649 0.74,-0.429 1.192,-1.033 1.355,-1.815 h 0.308 c 0.942,0.782 2.144,1.486 3.6,2.123 1.458,0.636 3.106,0.954 4.953,0.954 1.149,0 2.249,-0.113 3.288,-0.336 1.05,-0.229 1.982,-0.64 2.807,-1.233 0.814,-0.593 1.473,-1.407 1.966,-2.43 0.489,-1.026 0.739,-2.318 0.739,-3.878 0,-0.164 -0.012,-0.357 -0.028,-0.582 C 27.448,20.846 27.409,20.477 27.351,19.964 27.288,19.45 27.185,18.743 27.04,17.842 26.895,16.939 26.691,15.71 26.423,14.15 26.159,12.592 25.833,10.663 25.442,8.365 25.052,6.068 24.568,3.28 23.994,0 H 18.46 c 0.572,3.196 1.051,5.925 1.441,8.181 0.392,2.257 0.71,4.131 0.953,5.631 0.25,1.498 0.442,2.684 0.586,3.569 0.142,0.882 0.25,1.558 0.312,2.029 0.058,0.472 0.098,0.801 0.123,0.986 0.019,0.183 0.025,0.339 0.025,0.46 0,1.067 -0.148,1.981 -0.46,2.738 -0.303,0.76 -0.712,1.376 -1.226,1.847 -0.515,0.469 -1.103,0.81 -1.754,1.014 -0.662,0.206 -1.354,0.309 -2.096,0.309 -1.228,0 -2.42,-0.33 -3.567,-0.985 -1.148,-0.657 -2.194,-1.416 -3.136,-2.276 L 5.536,0 Z"
             style="fill:#0071ce;fill-opacity:1;fill-rule:nonzero;stroke:none"
             id="path92" />
        </g>
        <g
           id="g94"
           transform="translate(661.2139,489.8467)">
          <path
             d="m 0,0 -5.603,23.997 c -0.366,1.559 -1.064,2.728 -2.088,3.507 -1.03,0.78 -2.3,1.251 -3.814,1.415 l 0.182,1.229 h 5.228 c 1.85,0 3.303,-0.43 4.367,-1.291 1.072,-0.863 1.786,-2.071 2.16,-3.63 l 4,-17.043 11.505,21.351 h 3.078 L 1.23,-3.386 c -0.904,-1.68 -1.784,-3.064 -2.646,-4.15 -0.865,-1.086 -1.735,-1.939 -2.614,-2.556 -0.884,-0.613 -1.797,-1.034 -2.739,-1.26 -0.941,-0.224 -1.952,-0.339 -3.015,-0.339 h -1.843 l 0.369,1.849 c 0.898,0 1.771,0.089 2.614,0.273 0.84,0.185 1.637,0.515 2.401,0.986 0.757,0.472 1.503,1.129 2.241,1.969 0.738,0.842 1.455,1.918 2.151,3.228 z"
             style="fill:#0071ce;fill-opacity:1;fill-rule:nonzero;stroke:none"
             id="path96" />
        </g>
        <g
           id="g98"
           transform="translate(364.5591,633.6816)">
          <path
             d="m 0,0 -0.354,-2.012 h -11.313 l -5.482,-31.181 h -4.528 l 5.483,31.181 h -4.527 c -2.012,0 -3.638,-0.462 -4.881,-1.384 -1.238,-0.922 -2.044,-2.389 -2.415,-4.398 h -1.003 l 0.654,3.773 c 0.103,0.5 0.251,0.994 0.454,1.48 0.199,0.488 0.486,0.912 0.855,1.283 0.368,0.369 0.855,0.669 1.455,0.904 0.605,0.236 1.344,0.354 2.217,0.354 z"
             style="fill:#0071ce;fill-opacity:1;fill-rule:nonzero;stroke:none"
             id="path100" />
        </g>
        <g
           id="g102"
           transform="translate(372.9565,622.1143)">
          <path
             d="m 0,0 c 0.77,0.637 1.752,1.214 2.941,1.734 1.191,0.519 2.54,0.781 4.048,0.781 0.942,0 1.839,-0.093 2.693,-0.279 0.855,-0.184 1.616,-0.518 2.286,-1.007 0.673,-0.484 1.21,-1.144 1.612,-1.985 0.401,-0.835 0.6,-1.894 0.6,-3.168 0,-0.133 -0.002,-0.292 -0.022,-0.475 -0.017,-0.188 -0.053,-0.49 -0.1,-0.906 -0.054,-0.419 -0.135,-1 -0.249,-1.737 -0.121,-0.737 -0.289,-1.742 -0.508,-3.018 -0.217,-1.273 -0.485,-2.85 -0.803,-4.725 -0.32,-1.881 -0.715,-4.161 -1.182,-6.84 H 6.789 c 0.47,2.615 0.862,4.843 1.182,6.687 0.318,1.844 0.579,3.376 0.782,4.603 0.199,1.224 0.358,2.197 0.475,2.915 0.119,0.722 0.203,1.277 0.251,1.662 0.052,0.384 0.084,0.652 0.104,0.803 0.014,0.152 0.023,0.277 0.023,0.378 0,0.872 -0.127,1.616 -0.378,2.24 -0.25,0.617 -0.585,1.12 -1.004,1.506 C 7.803,-0.446 7.326,-0.169 6.789,0 6.25,0.166 5.682,0.251 5.081,0.251 4.074,0.251 3.1,-0.019 2.163,-0.554 1.224,-1.089 0.369,-1.711 -0.406,-2.414 L -3.771,-21.625 H -8.3 c 0.804,4.66 1.492,8.606 2.061,11.844 0.572,3.236 1.043,5.914 1.409,8.046 0.369,2.13 0.655,3.797 0.858,5.004 0.201,1.205 0.351,2.121 0.452,2.74 0.102,0.619 0.156,1.031 0.175,1.232 0.016,0.202 0.027,0.353 0.027,0.451 0,0.875 -0.202,1.569 -0.604,2.089 -0.405,0.52 -1.156,0.781 -2.264,0.781 h -1.008 l 0.202,1.005 h 4.526 c 1.341,0 2.307,-0.193 2.894,-0.576 0.586,-0.388 0.88,-1.217 0.88,-2.492 0,-0.202 -0.01,-0.446 -0.024,-0.73 C 1.265,7.485 1.206,7.047 1.106,6.462 1.007,5.876 0.869,5.072 0.703,4.047 0.536,3.026 0.303,1.675 0,0"
             style="fill:#0071ce;fill-opacity:1;fill-rule:nonzero;stroke:none"
             id="path104" />
        </g>
        <g
           id="g106"
           transform="translate(402.6758,612.5586)">
          <path
             d="m 0,0 c 1.612,0.065 2.969,0.67 4.08,1.809 1.102,1.14 1.655,2.616 1.655,4.426 0,1.175 -0.343,2.103 -1.029,2.792 -0.689,0.687 -1.667,1.031 -2.942,1.031 -1.778,0 -3.336,-0.888 -4.68,-2.665 C -4.254,5.615 -5.211,3.151 -5.779,0 Z m -6.134,-2.012 c -0.067,-0.369 -0.118,-0.72 -0.148,-1.056 -0.037,-0.337 -0.051,-0.671 -0.051,-1.006 0,-1.812 0.46,-3.345 1.383,-4.601 0.92,-1.258 2.289,-1.887 4.099,-1.887 1.641,0 3.068,0.354 4.273,1.055 1.206,0.706 2.365,1.695 3.472,2.969 l 0.852,-0.754 c -1.474,-1.916 -3.024,-3.27 -4.65,-4.074 -1.628,-0.805 -3.393,-1.208 -5.305,-1.208 -1.476,0 -2.76,0.236 -3.849,0.704 -1.086,0.47 -1.992,1.115 -2.715,1.937 -0.721,0.821 -1.258,1.792 -1.609,2.918 -0.355,1.122 -0.528,2.338 -0.528,3.645 0,1.744 0.284,3.529 0.853,5.357 0.571,1.827 1.409,3.484 2.515,4.98 1.106,1.491 2.474,2.715 4.101,3.669 1.623,0.956 3.478,1.434 5.555,1.434 2.985,0 5.128,-0.552 6.437,-1.66 C 9.86,9.304 10.515,7.945 10.515,6.335 10.515,4.96 10.223,3.754 9.636,2.714 9.045,1.676 8.257,0.802 7.272,0.101 6.282,-0.604 5.149,-1.13 3.875,-1.485 2.602,-1.837 1.276,-2.012 -0.098,-2.012 Z"
             style="fill:#0071ce;fill-opacity:1;fill-rule:nonzero;stroke:none"
             id="path108" />
        </g>
      </g>
    </g>
  </g>
</svg>
